<svg xmlns="http://www.w3.org/2000/svg" viewBox="0 0 24 24"><path d="M22 5.75v12.48c0 .49-.28.94-.72 1.15-.91.43-2.46 1.18-3.33 1.59.03-.16.05-.33.05-.5V3.53C18 3.3 17.97 3.12 17.94 3c.94.46 2.44 1.18 3.33 1.6C21.72 4.81 22 5.26 22 5.75zM3.91 13.35c.89.8 1.73 1.56 2.51 2.28l-1.48 1.12c-.37.28-.89.27-1.25-.03l-.94-.79c-.46-.39-.48-1.09-.03-1.5C3.05 14.13 3.46 13.76 3.91 13.35zM16 3.53v4.81l-3.16 2.4-3.3-2.5c2.29-2.07 4.46-4.05 5.59-5.1.23-.22.56-.16.74.04.05.06.09.13.11.22C15.99 3.44 16 3.48 16 3.53zM16 20.47v-4.81L4.938 7.252c-.372-.283-.889-.27-1.247.03L2.754 8.066C2.289 8.456 2.271 9.162 2.72 9.569c2.747 2.488 9.998 9.06 12.41 11.291C15.462 21.167 16 20.93 16 20.47z"/></svg>